<svg xmlns="http://www.w3.org/2000/svg" width="1200" height="400" viewBox="0 0 1200 400" font-family="Menlo, monospace">
  <rect width="1200" height="400" fill="#0B1220"/>
  <path d="M0,200 L4,212 L8,220 L12,219 L16,208 L20,191 L24,177 L28,172 L32,181 L36,201 L40,222 L44,234 L48,231 L52,212 L56,186 L60,165 L64,159 L68,173 L72,201 L76,231 L80,247 L84,241 L88,215 L92,181 L96,154 L100,148 L104,167 L108,203 L112,239 L116,257 L120,249 L124,217 L128,176 L132,145 L136,140 L140,163 L144,204 L148,245 L152,265 L156,254 L160,218 L164,172 L168,139 L172,134 L176,161 L180,206 L184,249 L188,269 L192,257 L196,218 L200,170 L204,136 L208,133 L212,161 L216,207 L220,250 L224,270 L228,256 L232,217 L236,169 L240,137 L244,135 L248,163 L252,208 L256,249 L260,266 L264,252 L268,214 L272,171 L276,141 L280,140 L284,167 L288,208 L292,245 L296,259 L300,246 L304,212 L308,173 L312,149 L316,149 L320,172 L324,208 L328,238 L332,249 L336,237 L340,209 L344,178 L348,159 L352,160 L356,179 L360,207 L364,229 L368,237 L372,227 L376,206 L380,184 L384,171 L388,172 L392,186 L396,205 L400,219 L404,223 L408,216 L412,203 L416,190 L420,183 L424,182 L428,190 L432,205 L436,219 L440,226 L444,220 L448,204 L452,184 L456,170 L460,169 L464,184 L468,208 L472,230 L476,239 L480,230 L484,205 L488,176 L492,157 L496,158 L500,179 L504,211 L508,240 L512,251 L516,238 L520,206 L524,169 L528,146 L532,148 L536,175 L540,215 L544,249 L548,261 L552,244 L556,206 L560,164 L564,138 L568,141 L572,173 L576,218 L580,255 L584,267 L588,247 L592,205 L596,160 L600,133 L604,138 L608,172 L612,220 L616,258 L620,269 L624,248 L628,204 L632,158 L636,132 L640,138 L644,173 L648,221 L652,258 L656,268 L660,246 L664,203 L668,158 L672,134 L676,141 L680,175 L684,221 L688,255 L692,263 L696,242 L700,201 L704,161 L708,140 L712,148 L716,179 L720,219 L724,249 L728,255 L732,236 L736,200 L740,166 L744,149 L748,157 L752,183 L756,216 L760,240 L764,244 L768,228 L772,200 L776,173 L780,161 L784,167 L788,188 L792,213 L796,230 L800,232 L804,219 L808,199 L812,182 L816,174 L820,179 L824,193 L828,208 L832,217 L836,218 L840,211 L844,199 L848,185 L852,177 L856,179 L860,192 L864,211 L868,226 L872,230 L876,219 L880,198 L884,176 L888,163 L892,168 L896,189 L900,217 L904,238 L908,243 L912,226 L916,196 L920,166 L924,151 L928,159 L932,187 L936,222 L940,249 L944,253 L948,232 L952,195 L956,158 L960,141 L964,151 L968,185 L972,227 L976,257 L980,261 L984,236 L988,193 L992,152 L996,134 L1000,147 L1004,185 L1008,231 L1012,263 L1016,266 L1020,237 L1024,191 L1028,149 L1032,130 L1036,145 L1040,185 L1044,233 L1048,265 L1052,266 L1056,237 L1060,190 L1064,148 L1068,131 L1072,146 L1076,187 L1080,233 L1084,263 L1088,264 L1092,234 L1096,189 L1100,150 L1104,135 L1108,150 L1112,189 L1116,231 L1120,259 L1124,258 L1128,230 L1132,189 L1136,155 L1140,142 L1144,157 L1148,191 L1152,228 L1156,251 L1160,249 L1164,225 L1168,190 L1172,162 L1176,153 L1180,166 L1184,194 L1188,223 L1192,240 L1196,238" stroke="#38BDF8" stroke-width="1.4" fill="none" opacity="0.28"/>
  <path d="M0,200 L4,212 L8,220 L12,219 L16,208 L20,191 L24,177 L28,172 L32,181 L36,201 L40,222 L44,234 L48,231 L52,212 L56,186 L60,165 L64,159 L68,173 L72,201 L76,231 L80,247 L84,241 L88,215 L92,181 L96,154 L100,148 L104,167 L108,203 L112,239 L116,257 L120,249 L124,217 L128,176 L132,145 L136,140 L140,163 L144,204 L148,245 L152,265 L156,254 L160,218 L164,172 L168,139 L172,134 L176,161 L180,206 L184,249 L188,269 L192,257 L196,218 L200,170 L204,136 L208,133 L212,161 L216,207 L220,250 L224,270 L228,256 L232,217 L236,169 L240,137 L244,135 L248,163 L252,208 L256,249 L260,266 L264,252 L268,214 L272,171 L276,141 L280,140 L284,167 L288,208 L292,245 L296,259 L300,246 L304,212 L308,173 L312,149 L316,149 L320,172 L324,208 L328,238 L332,249 L336,237 L340,209 L344,178 L348,159 L352,160 L356,179 L360,207 L364,229 L368,237 L372,227 L376,206 L380,184 L384,171 L388,172 L392,186 L396,205 L400,219 L404,223 L408,216 L412,203 L416,190 L420,183 L424,182 L428,190 L432,205 L436,219 L440,226 L444,220 L448,204 L452,184 L456,170 L460,169 L464,184 L468,208 L472,230 L476,239 L480,230 L484,205 L488,176 L492,157 L496,158 L500,179 L504,211 L508,240 L512,251 L516,238 L520,206 L524,169 L528,146 L532,148 L536,175 L540,215 L544,249 L548,261 L552,244 L556,206 L560,164 L564,138 L568,141 L572,173 L576,218 L580,255 L584,267 L588,247 L592,205 L596,160 L600,133 L604,138 L608,172 L612,220 L616,258 L620,269 L624,248 L628,204 L632,158 L636,132 L640,138 L644,173 L648,221 L652,258 L656,268 L660,246 L664,203 L668,158 L672,134 L676,141 L680,175 L684,221 L688,255 L692,263 L696,242 L700,201 L704,161 L708,140 L712,148 L716,179 L720,219 L724,249 L728,255 L732,236 L736,200 L740,166 L744,149 L748,157 L752,183 L756,216 L760,240 L764,244 L768,228 L772,200 L776,173 L780,161 L784,167 L788,188 L792,213 L796,230 L800,232 L804,219 L808,199 L812,182 L816,174 L820,179 L824,193 L828,208 L832,217 L836,218 L840,211 L844,199 L848,185 L852,177 L856,179 L860,192 L864,211 L868,226 L872,230 L876,219 L880,198 L884,176 L888,163 L892,168 L896,189 L900,217 L904,238 L908,243 L912,226 L916,196 L920,166 L924,151 L928,159 L932,187 L936,222 L940,249 L944,253 L948,232 L952,195 L956,158 L960,141 L964,151 L968,185 L972,227 L976,257 L980,261 L984,236 L988,193 L992,152 L996,134 L1000,147 L1004,185 L1008,231 L1012,263 L1016,266 L1020,237 L1024,191 L1028,149 L1032,130 L1036,145 L1040,185 L1044,233 L1048,265 L1052,266 L1056,237 L1060,190 L1064,148 L1068,131 L1072,146 L1076,187 L1080,233 L1084,263 L1088,264 L1092,234 L1096,189 L1100,150 L1104,135 L1108,150 L1112,189 L1116,231 L1120,259 L1124,258 L1128,230 L1132,189 L1136,155 L1140,142 L1144,157 L1148,191 L1152,228 L1156,251 L1160,249 L1164,225 L1168,190 L1172,162 L1176,153 L1180,166 L1184,194 L1188,223 L1192,240 L1196,238" stroke="#38BDF8" stroke-width="1.4" fill="none" opacity="0.14" transform="translate(0,60)"/>
  <rect x="0" y="0" width="1200" height="400" fill="#0B1220" opacity="0.35"/>
  <text x="64" y="212" font-size="62" font-weight="bold" fill="#E2E8F0">audio_decode</text>
  <text x="66" y="256" font-size="23" fill="#94A3B8">Ogg Vorbis and MP3 to PCM, in plain Dart</text>
</svg>
